<svg version="1.1" xmlns="http://www.w3.org/2000/svg" xmlns:xlink="http://www.w3.org/1999/xlink" width="338.66666mm" height="73.948204mm" viewBox="0,0,255.99332,55.89286"><g fill="none" fill-rule="nonzero" stroke="none" stroke-width="none" stroke-linecap="butt" stroke-linejoin="miter" stroke-miterlimit="10" stroke-dasharray="" stroke-dashoffset="0" font-family="none" font-weight="none" font-size="none" text-anchor="none" style="mix-blend-mode: normal"><g transform="translate(-0.00335,-0.0025) scale(0.75591,0.75591)"><g transform="translate(-44.33253,-140.87929)" id="layer1"><g transform="translate(-79.26673,-251.89272) scale(2.788,2.788)" id="g963"><g id="g938" fill="#ffffff" stroke-width="0.74099"><path d="M54.2603,161.75438c-5.3964,0 -9.92777,-4.37503 -9.92777,-9.75646c0,-5.38138 4.53137,-9.75633 9.92777,-9.75633c2.98656,0 5.10808,1.17075 6.69402,2.6907l-1.89493,1.88966c-1.1535,-1.06806 -2.69816,-1.9102 -4.81969,-1.9102c-3.93406,0 -7.02361,3.16307 -7.02361,7.08617c0,3.92309 3.06902,7.08623 7.02361,7.08623c2.55404,0 4.01646,-1.02694 4.94329,-1.95125c0.76211,-0.75996 1.25642,-1.84862 1.46234,-3.34793h-6.46742v-2.67023h9.06266c0.103,0.47238 0.1442,1.04754 0.1442,1.66374c0,1.99238 -0.55611,4.47765 -2.30685,6.24409c-1.73013,1.78696 -3.91346,2.73181 -6.81761,2.73181z" id="path1093"></path><path d="M76.93077,155.47042c0,3.61498 -2.84266,6.28514 -6.32352,6.28514c-3.48087,0 -6.3233,-2.67016 -6.3233,-6.28514c0,-3.63551 2.84243,-6.28513 6.3233,-6.28513c3.48087,0 6.32352,2.64962 6.32352,6.28513zM74.17051,155.47042c0,-2.25935 -1.64781,-3.79986 -3.54274,-3.79986c-1.89493,0 -3.54267,1.54051 -3.54267,3.79986c0,2.23882 1.64774,3.79979 3.54267,3.79979c1.89493,0 3.54274,-1.56097 3.54274,-3.79979z" id="path1095"></path><path d="M90.6924,155.46931c0,3.61498 -2.84243,6.28529 -6.32359,6.28529c-3.48042,0 -6.32286,-2.67031 -6.32286,-6.28529c0,-3.63551 2.84243,-6.28514 6.32286,-6.28514c3.48117,0 6.32359,2.64963 6.32359,6.28514zM87.91148,155.46931c0,-2.25935 -1.64796,-3.79979 -3.54267,-3.79979c-1.89471,0 -3.54266,1.54044 -3.54266,3.79979c0,2.2389 1.64796,3.79993 3.54266,3.79993c1.89471,0 3.54267,-1.56103 3.54267,-3.79993z" id="path1097"></path><path d="M103.88318,160.85074c0,4.642 -2.73943,6.55226 -5.99311,6.55226c-3.04843,0 -4.88163,-2.05401 -5.58187,-3.71769l2.40969,-1.00648c0.43274,1.02701 1.48272,2.23883 3.17217,2.23883c2.07996,0 3.35668,-1.294 3.35668,-3.69716v-0.90371h-0.103c-0.61724,0.75995 -1.81245,1.43781 -3.31592,1.43781c-3.15142,0 -6.03461,-2.73181 -6.03461,-6.26462c0,-3.55349 2.88319,-6.30581 6.03461,-6.30581c1.50347,0 2.69868,0.65726 3.31592,1.39677h0.103v-1.02702h2.63643zM101.45274,155.48998c0,-2.21837 -1.48271,-3.84099 -3.35667,-3.84099c-1.9162,0 -3.50191,1.62262 -3.50191,3.84099c0,2.1977 1.60646,3.77926 3.50191,3.77926c1.87396,0 3.35667,-1.58156 3.35667,-3.77926z" id="path1099"></path><path d="M108.53667,142.90065v18.46523h-2.75943v-18.46523z" id="path1101"></path><path d="M119.21374,157.54511l2.14219,1.43782c-0.70023,1.02701 -2.36894,2.79346 -5.25212,2.79346c-3.58417,0 -6.24061,-2.75241 -6.24061,-6.28529c0,-3.73815 2.69794,-6.28515 5.93161,-6.28515c3.27518,0 4.86089,2.58805 5.39663,4.00527l0.28824,0.71891l-8.4243,3.47123c0.63873,1.25294 1.64722,1.9102 3.04843,1.9102c1.40047,-0.0411 2.38894,-0.71891 3.10993,-1.76645zM112.60263,155.28576l5.62263,-2.34152c-0.30974,-0.78048 -1.23597,-1.33511 -2.3482,-1.33511c-1.40046,0 -3.35742,1.25301 -3.27443,3.67663z" id="path1103"></path></g><path d="M145.31283,140.87929h1.82179l-5.08926,22.4914h-1.82179z" id="rect947" fill="#ffffff" stroke-width="17.5373"></path><path d="M129.69254,142.86812h9.22079v18.4416h-9.22079z" id="rect944" fill="#3d8bff" stroke-width="17.4551"></path><path d="M165.80534,152.11745c0,5.27388 -4.27533,9.54921 -9.54921,9.54921c-5.27388,0 -9.54921,-4.27533 -9.54921,-9.54921c0,-5.27388 4.27533,-9.54921 9.54921,-9.54921c5.27388,0 9.54921,4.27533 9.54921,9.54921z" id="path950" fill="#3d8bff" stroke-width="17.2513"></path></g></g></g></g></svg>